<mxfile host="Electron" modified="2023-06-25T10:51:02.343Z" agent="Mozilla/5.0 (X11; Linux x86_64) AppleWebKit/537.36 (KHTML, like Gecko) draw.io/21.1.2 Chrome/106.0.5249.199 Electron/21.4.3 Safari/537.36" etag="iicWN6fZCtRwPipRqNwX" version="21.1.2" type="device">
  <diagram name="Pagina-1" id="bGzK4uWtAAfxORngPava">
    <mxGraphModel dx="1434" dy="830" grid="1" gridSize="10" guides="1" tooltips="1" connect="1" arrows="1" fold="1" page="1" pageScale="1" pageWidth="827" pageHeight="1169" math="0" shadow="0">
      <root>
        <mxCell id="0" />
        <mxCell id="1" parent="0" />
        <mxCell id="gY_GVaVvyaLF-PBXhxA3-17" value="" style="rounded=1;whiteSpace=wrap;html=1;" parent="1" vertex="1">
          <mxGeometry x="270" y="570" width="200" height="140" as="geometry" />
        </mxCell>
        <mxCell id="gY_GVaVvyaLF-PBXhxA3-16" value="" style="image;aspect=fixed;perimeter=ellipsePerimeter;html=1;align=center;shadow=0;dashed=0;fontColor=#4277BB;labelBackgroundColor=default;fontSize=12;spacingTop=3;image=img/lib/ibm/applications/service_broker.svg;imageBackground=default;" parent="1" vertex="1">
          <mxGeometry x="420" y="680" width="20" height="20" as="geometry" />
        </mxCell>
        <mxCell id="gY_GVaVvyaLF-PBXhxA3-15" value="" style="sketch=0;outlineConnect=0;fontColor=#232F3E;gradientColor=none;strokeColor=#232F3E;fillColor=#ffffff;dashed=0;verticalLabelPosition=bottom;verticalAlign=top;align=center;html=1;fontSize=12;fontStyle=0;aspect=fixed;shape=mxgraph.aws4.resourceIcon;resIcon=mxgraph.aws4.inventory;" parent="1" vertex="1">
          <mxGeometry x="400" y="680" width="20" height="20" as="geometry" />
        </mxCell>
        <mxCell id="gY_GVaVvyaLF-PBXhxA3-13" value="" style="image;aspect=fixed;perimeter=ellipsePerimeter;html=1;align=center;shadow=0;dashed=0;fontColor=#4277BB;labelBackgroundColor=default;fontSize=12;spacingTop=3;image=img/lib/ibm/applications/service_broker.svg;imageBackground=default;" parent="1" vertex="1">
          <mxGeometry x="320" y="680" width="20" height="20" as="geometry" />
        </mxCell>
        <mxCell id="gY_GVaVvyaLF-PBXhxA3-12" value="" style="sketch=0;outlineConnect=0;fontColor=#232F3E;gradientColor=none;strokeColor=#232F3E;fillColor=#ffffff;dashed=0;verticalLabelPosition=bottom;verticalAlign=top;align=center;html=1;fontSize=12;fontStyle=0;aspect=fixed;shape=mxgraph.aws4.resourceIcon;resIcon=mxgraph.aws4.inventory;" parent="1" vertex="1">
          <mxGeometry x="300" y="680" width="20" height="20" as="geometry" />
        </mxCell>
        <mxCell id="gY_GVaVvyaLF-PBXhxA3-9" value="" style="image;aspect=fixed;perimeter=ellipsePerimeter;html=1;align=center;shadow=0;dashed=0;fontColor=#4277BB;labelBackgroundColor=default;fontSize=12;spacingTop=3;image=img/lib/ibm/applications/service_broker.svg;" parent="1" vertex="1">
          <mxGeometry x="400" y="620" width="20" height="20" as="geometry" />
        </mxCell>
        <mxCell id="gY_GVaVvyaLF-PBXhxA3-10" value="" style="sketch=0;outlineConnect=0;fontColor=#232F3E;gradientColor=none;strokeColor=#232F3E;fillColor=#ffffff;dashed=0;verticalLabelPosition=bottom;verticalAlign=top;align=center;html=1;fontSize=12;fontStyle=0;aspect=fixed;shape=mxgraph.aws4.resourceIcon;resIcon=mxgraph.aws4.inventory;" parent="1" vertex="1">
          <mxGeometry x="380" y="620" width="20" height="20" as="geometry" />
        </mxCell>
        <mxCell id="gY_GVaVvyaLF-PBXhxA3-8" value="" style="sketch=0;outlineConnect=0;fontColor=#232F3E;gradientColor=none;strokeColor=#232F3E;fillColor=#ffffff;dashed=0;verticalLabelPosition=bottom;verticalAlign=top;align=center;html=1;fontSize=12;fontStyle=0;aspect=fixed;shape=mxgraph.aws4.resourceIcon;resIcon=mxgraph.aws4.inventory;" parent="1" vertex="1">
          <mxGeometry x="300" y="620" width="20" height="20" as="geometry" />
        </mxCell>
        <mxCell id="gY_GVaVvyaLF-PBXhxA3-2" value="TradeStation" style="rounded=0;whiteSpace=wrap;html=1;fillColor=#f5f5f5;strokeColor=#666666;fontColor=#333333;fontSize=10;" parent="1" vertex="1">
          <mxGeometry x="280" y="600" width="80" height="20" as="geometry" />
        </mxCell>
        <mxCell id="gY_GVaVvyaLF-PBXhxA3-3" value="InteractiveB" style="rounded=0;whiteSpace=wrap;html=1;fillColor=#f5f5f5;strokeColor=#666666;fontColor=#333333;fontSize=10;" parent="1" vertex="1">
          <mxGeometry x="380" y="600" width="80" height="20" as="geometry" />
        </mxCell>
        <mxCell id="gY_GVaVvyaLF-PBXhxA3-4" value="Binance" style="rounded=0;whiteSpace=wrap;html=1;fillColor=#f5f5f5;strokeColor=#666666;fontColor=#333333;fontSize=10;" parent="1" vertex="1">
          <mxGeometry x="280" y="660" width="80" height="20" as="geometry" />
        </mxCell>
        <mxCell id="gY_GVaVvyaLF-PBXhxA3-5" value="Local" style="rounded=0;whiteSpace=wrap;html=1;fillColor=#f5f5f5;fontColor=#333333;strokeColor=#666666;fontSize=10;" parent="1" vertex="1">
          <mxGeometry x="380" y="660" width="80" height="20" as="geometry" />
        </mxCell>
        <mxCell id="gY_GVaVvyaLF-PBXhxA3-7" value="" style="shape=datastore;whiteSpace=wrap;html=1;" parent="1" vertex="1">
          <mxGeometry x="280" y="620" width="20" height="20" as="geometry" />
        </mxCell>
        <mxCell id="gY_GVaVvyaLF-PBXhxA3-11" value="" style="shape=datastore;whiteSpace=wrap;html=1;" parent="1" vertex="1">
          <mxGeometry x="280" y="680" width="20" height="20" as="geometry" />
        </mxCell>
        <mxCell id="gY_GVaVvyaLF-PBXhxA3-18" value="" style="endArrow=classic;html=1;rounded=0;entryX=0.5;entryY=1;entryDx=0;entryDy=0;" parent="1" target="gY_GVaVvyaLF-PBXhxA3-29" edge="1">
          <mxGeometry width="50" height="50" relative="1" as="geometry">
            <mxPoint x="320" y="570" as="sourcePoint" />
            <mxPoint x="320" y="520" as="targetPoint" />
            <Array as="points">
              <mxPoint x="320" y="550" />
              <mxPoint x="200" y="550" />
            </Array>
          </mxGeometry>
        </mxCell>
        <mxCell id="gY_GVaVvyaLF-PBXhxA3-19" value="Data" style="edgeLabel;html=1;align=center;verticalAlign=middle;resizable=0;points=[];fontSize=8;" parent="gY_GVaVvyaLF-PBXhxA3-18" vertex="1" connectable="0">
          <mxGeometry x="0.4267" relative="1" as="geometry">
            <mxPoint y="6" as="offset" />
          </mxGeometry>
        </mxCell>
        <mxCell id="gY_GVaVvyaLF-PBXhxA3-21" value="" style="endArrow=classic;html=1;rounded=0;startArrow=classic;startFill=1;" parent="1" edge="1">
          <mxGeometry width="50" height="50" relative="1" as="geometry">
            <mxPoint x="420" y="570" as="sourcePoint" />
            <mxPoint x="420" y="520" as="targetPoint" />
          </mxGeometry>
        </mxCell>
        <mxCell id="gY_GVaVvyaLF-PBXhxA3-22" value="Orders" style="edgeLabel;html=1;align=center;verticalAlign=middle;resizable=0;points=[];fontSize=8;" parent="gY_GVaVvyaLF-PBXhxA3-21" vertex="1" connectable="0">
          <mxGeometry x="0.4267" relative="1" as="geometry">
            <mxPoint y="6" as="offset" />
          </mxGeometry>
        </mxCell>
        <mxCell id="gY_GVaVvyaLF-PBXhxA3-23" value="" style="endArrow=classic;html=1;rounded=0;startArrow=classic;startFill=1;entryX=0.5;entryY=1;entryDx=0;entryDy=0;" parent="1" target="gY_GVaVvyaLF-PBXhxA3-28" edge="1">
          <mxGeometry width="50" height="50" relative="1" as="geometry">
            <mxPoint x="369.83" y="570" as="sourcePoint" />
            <mxPoint x="370" y="490" as="targetPoint" />
          </mxGeometry>
        </mxCell>
        <mxCell id="gY_GVaVvyaLF-PBXhxA3-24" value="Inventory" style="edgeLabel;html=1;align=center;verticalAlign=middle;resizable=0;points=[];fontSize=8;" parent="gY_GVaVvyaLF-PBXhxA3-23" vertex="1" connectable="0">
          <mxGeometry x="0.4267" relative="1" as="geometry">
            <mxPoint y="6" as="offset" />
          </mxGeometry>
        </mxCell>
        <mxCell id="gY_GVaVvyaLF-PBXhxA3-27" value="&lt;font style=&quot;font-size: 8px;&quot;&gt;Single connection to each system&lt;/font&gt;" style="shape=note;strokeWidth=1;fontSize=8;size=10;whiteSpace=wrap;html=1;fillColor=#fff2cc;strokeColor=#d6b656;fontColor=#666600;align=left;verticalAlign=bottom;" parent="1" vertex="1">
          <mxGeometry x="280" y="720" width="140" height="20" as="geometry" />
        </mxCell>
        <mxCell id="gY_GVaVvyaLF-PBXhxA3-61" style="edgeStyle=orthogonalEdgeStyle;rounded=0;orthogonalLoop=1;jettySize=auto;html=1;entryX=0;entryY=0.5;entryDx=0;entryDy=0;" parent="1" source="gY_GVaVvyaLF-PBXhxA3-28" target="gY_GVaVvyaLF-PBXhxA3-60" edge="1">
          <mxGeometry relative="1" as="geometry" />
        </mxCell>
        <mxCell id="gY_GVaVvyaLF-PBXhxA3-28" value="Inventory Server" style="rounded=1;whiteSpace=wrap;html=1;fontSize=11;" parent="1" vertex="1">
          <mxGeometry x="310" y="420" width="120" height="60" as="geometry" />
        </mxCell>
        <mxCell id="gY_GVaVvyaLF-PBXhxA3-37" style="edgeStyle=orthogonalEdgeStyle;rounded=0;orthogonalLoop=1;jettySize=auto;html=1;entryX=1;entryY=0.75;entryDx=0;entryDy=0;" parent="1" source="gY_GVaVvyaLF-PBXhxA3-29" target="gY_GVaVvyaLF-PBXhxA3-30" edge="1">
          <mxGeometry relative="1" as="geometry">
            <Array as="points">
              <mxPoint x="200" y="393" />
              <mxPoint x="160" y="393" />
            </Array>
          </mxGeometry>
        </mxCell>
        <mxCell id="gY_GVaVvyaLF-PBXhxA3-29" value="Sync master" style="rounded=1;whiteSpace=wrap;html=1;fontSize=11;" parent="1" vertex="1">
          <mxGeometry x="160" y="500" width="80" height="20" as="geometry" />
        </mxCell>
        <mxCell id="gY_GVaVvyaLF-PBXhxA3-40" style="edgeStyle=orthogonalEdgeStyle;rounded=0;orthogonalLoop=1;jettySize=auto;html=1;exitX=1;exitY=0.25;exitDx=0;exitDy=0;entryX=0.5;entryY=1;entryDx=0;entryDy=0;" parent="1" source="gY_GVaVvyaLF-PBXhxA3-30" target="gY_GVaVvyaLF-PBXhxA3-39" edge="1">
          <mxGeometry relative="1" as="geometry">
            <Array as="points">
              <mxPoint x="190" y="358" />
              <mxPoint x="280" y="358" />
            </Array>
          </mxGeometry>
        </mxCell>
        <mxCell id="gY_GVaVvyaLF-PBXhxA3-30" value="" style="rounded=1;whiteSpace=wrap;html=1;" parent="1" vertex="1">
          <mxGeometry x="20" y="340" width="120" height="70" as="geometry" />
        </mxCell>
        <mxCell id="gY_GVaVvyaLF-PBXhxA3-31" value="Cache" style="rounded=0;whiteSpace=wrap;html=1;fillColor=#f5f5f5;strokeColor=#666666;fontColor=#333333;fontSize=10;" parent="1" vertex="1">
          <mxGeometry x="40" y="380" width="80" height="20" as="geometry" />
        </mxCell>
        <mxCell id="gY_GVaVvyaLF-PBXhxA3-32" value="Priority queue" style="rounded=0;whiteSpace=wrap;html=1;fillColor=#f5f5f5;strokeColor=#666666;fontColor=#333333;fontSize=10;" parent="1" vertex="1">
          <mxGeometry x="40" y="350" width="80" height="20" as="geometry" />
        </mxCell>
        <mxCell id="gY_GVaVvyaLF-PBXhxA3-36" style="edgeStyle=orthogonalEdgeStyle;rounded=0;orthogonalLoop=1;jettySize=auto;html=1;entryX=0.5;entryY=1;entryDx=0;entryDy=0;startArrow=classic;startFill=1;" parent="1" source="gY_GVaVvyaLF-PBXhxA3-33" target="gY_GVaVvyaLF-PBXhxA3-30" edge="1">
          <mxGeometry relative="1" as="geometry" />
        </mxCell>
        <mxCell id="gY_GVaVvyaLF-PBXhxA3-33" value="&lt;font style=&quot;font-size: 10px;&quot;&gt;MySQL&lt;/font&gt;" style="shape=datastore;whiteSpace=wrap;html=1;fontSize=10;" parent="1" vertex="1">
          <mxGeometry x="30" y="450" width="40" height="40" as="geometry" />
        </mxCell>
        <mxCell id="gY_GVaVvyaLF-PBXhxA3-35" style="edgeStyle=orthogonalEdgeStyle;rounded=0;orthogonalLoop=1;jettySize=auto;html=1;entryX=0.5;entryY=1;entryDx=0;entryDy=0;startArrow=classic;startFill=1;" parent="1" source="gY_GVaVvyaLF-PBXhxA3-34" target="gY_GVaVvyaLF-PBXhxA3-30" edge="1">
          <mxGeometry relative="1" as="geometry" />
        </mxCell>
        <mxCell id="gY_GVaVvyaLF-PBXhxA3-34" value="&lt;font style=&quot;font-size: 10px;&quot;&gt;InfluxDB&lt;/font&gt;" style="shape=datastore;whiteSpace=wrap;html=1;fontSize=10;" parent="1" vertex="1">
          <mxGeometry x="90" y="450" width="40" height="40" as="geometry" />
        </mxCell>
        <mxCell id="gY_GVaVvyaLF-PBXhxA3-38" value="&lt;font style=&quot;font-size: 8px;&quot;&gt;Low priority&lt;/font&gt;" style="shape=note;strokeWidth=1;fontSize=8;size=10;whiteSpace=wrap;html=1;fillColor=#fff2cc;strokeColor=#d6b656;fontColor=#666600;align=left;verticalAlign=bottom;" parent="1" vertex="1">
          <mxGeometry x="160" y="370" width="60" height="20" as="geometry" />
        </mxCell>
        <mxCell id="gY_GVaVvyaLF-PBXhxA3-42" style="edgeStyle=orthogonalEdgeStyle;rounded=0;orthogonalLoop=1;jettySize=auto;html=1;entryX=0.5;entryY=0;entryDx=0;entryDy=0;" parent="1" source="gY_GVaVvyaLF-PBXhxA3-39" target="gY_GVaVvyaLF-PBXhxA3-28" edge="1">
          <mxGeometry relative="1" as="geometry" />
        </mxCell>
        <mxCell id="gY_GVaVvyaLF-PBXhxA3-39" value="WebUI" style="rounded=1;whiteSpace=wrap;html=1;" parent="1" vertex="1">
          <mxGeometry x="230" y="320" width="80" height="20" as="geometry" />
        </mxCell>
        <mxCell id="gY_GVaVvyaLF-PBXhxA3-41" value="&lt;font style=&quot;font-size: 8px;&quot;&gt;High priority&lt;/font&gt;" style="shape=note;strokeWidth=1;fontSize=8;size=10;whiteSpace=wrap;html=1;fillColor=#fff2cc;strokeColor=#d6b656;fontColor=#666600;align=left;verticalAlign=bottom;" parent="1" vertex="1">
          <mxGeometry x="160" y="330" width="60" height="20" as="geometry" />
        </mxCell>
        <mxCell id="gY_GVaVvyaLF-PBXhxA3-57" style="edgeStyle=orthogonalEdgeStyle;rounded=0;orthogonalLoop=1;jettySize=auto;html=1;exitX=0.75;exitY=0;exitDx=0;exitDy=0;entryX=0;entryY=0.75;entryDx=0;entryDy=0;" parent="1" source="gY_GVaVvyaLF-PBXhxA3-43" target="gY_GVaVvyaLF-PBXhxA3-49" edge="1">
          <mxGeometry relative="1" as="geometry" />
        </mxCell>
        <mxCell id="gY_GVaVvyaLF-PBXhxA3-59" value="Status" style="edgeLabel;html=1;align=center;verticalAlign=middle;resizable=0;points=[];fontSize=8;" parent="gY_GVaVvyaLF-PBXhxA3-57" vertex="1" connectable="0">
          <mxGeometry x="0.1154" relative="1" as="geometry">
            <mxPoint x="6" y="-10" as="offset" />
          </mxGeometry>
        </mxCell>
        <mxCell id="gY_GVaVvyaLF-PBXhxA3-62" style="edgeStyle=orthogonalEdgeStyle;rounded=0;orthogonalLoop=1;jettySize=auto;html=1;exitX=0.25;exitY=1;exitDx=0;exitDy=0;entryX=0.461;entryY=0;entryDx=0;entryDy=0;entryPerimeter=0;" parent="1" source="gY_GVaVvyaLF-PBXhxA3-43" target="gY_GVaVvyaLF-PBXhxA3-44" edge="1">
          <mxGeometry relative="1" as="geometry" />
        </mxCell>
        <mxCell id="gY_GVaVvyaLF-PBXhxA3-63" style="edgeStyle=orthogonalEdgeStyle;rounded=0;orthogonalLoop=1;jettySize=auto;html=1;exitX=0.75;exitY=1;exitDx=0;exitDy=0;entryX=0.456;entryY=0;entryDx=0;entryDy=0;entryPerimeter=0;" parent="1" source="gY_GVaVvyaLF-PBXhxA3-43" target="gY_GVaVvyaLF-PBXhxA3-45" edge="1">
          <mxGeometry relative="1" as="geometry" />
        </mxCell>
        <mxCell id="gY_GVaVvyaLF-PBXhxA3-43" value="Language runner (parser + data)" style="rounded=0;whiteSpace=wrap;html=1;fillColor=#f5f5f5;strokeColor=#666666;fontColor=#333333;fontSize=10;strokeWidth=1;" parent="1" vertex="1">
          <mxGeometry x="540" y="480" width="90" height="30" as="geometry" />
        </mxCell>
        <mxCell id="gY_GVaVvyaLF-PBXhxA3-44" value="Stragety" style="shape=note;whiteSpace=wrap;html=1;backgroundOutline=1;darkOpacity=0.05;size=10;align=left;fontSize=10;" parent="1" vertex="1">
          <mxGeometry x="520" y="540" width="60" height="20" as="geometry" />
        </mxCell>
        <mxCell id="gY_GVaVvyaLF-PBXhxA3-45" value="Sys Libs" style="shape=note;whiteSpace=wrap;html=1;backgroundOutline=1;darkOpacity=0.05;size=10;align=left;fontSize=10;" parent="1" vertex="1">
          <mxGeometry x="590" y="540" width="60" height="20" as="geometry" />
        </mxCell>
        <mxCell id="gY_GVaVvyaLF-PBXhxA3-48" style="edgeStyle=orthogonalEdgeStyle;rounded=0;orthogonalLoop=1;jettySize=auto;html=1;entryX=0;entryY=0.5;entryDx=0;entryDy=0;" parent="1" source="gY_GVaVvyaLF-PBXhxA3-46" target="gY_GVaVvyaLF-PBXhxA3-47" edge="1">
          <mxGeometry relative="1" as="geometry" />
        </mxCell>
        <mxCell id="gY_GVaVvyaLF-PBXhxA3-52" style="edgeStyle=orthogonalEdgeStyle;rounded=0;orthogonalLoop=1;jettySize=auto;html=1;entryX=1;entryY=0.5;entryDx=0;entryDy=0;" parent="1" source="gY_GVaVvyaLF-PBXhxA3-46" target="gY_GVaVvyaLF-PBXhxA3-17" edge="1">
          <mxGeometry relative="1" as="geometry">
            <Array as="points">
              <mxPoint x="700" y="640" />
            </Array>
          </mxGeometry>
        </mxCell>
        <mxCell id="gY_GVaVvyaLF-PBXhxA3-53" value="Buy/sell" style="edgeLabel;html=1;align=center;verticalAlign=middle;resizable=0;points=[];fontSize=8;" parent="gY_GVaVvyaLF-PBXhxA3-52" vertex="1" connectable="0">
          <mxGeometry x="-0.5261" y="-1" relative="1" as="geometry">
            <mxPoint x="21" y="-78" as="offset" />
          </mxGeometry>
        </mxCell>
        <mxCell id="gY_GVaVvyaLF-PBXhxA3-46" value="Order bridge" style="rounded=0;whiteSpace=wrap;html=1;fillColor=#f5f5f5;strokeColor=#666666;fontColor=#333333;fontSize=10;strokeWidth=1;" parent="1" vertex="1">
          <mxGeometry x="660" y="480" width="80" height="20" as="geometry" />
        </mxCell>
        <mxCell id="gY_GVaVvyaLF-PBXhxA3-47" value="&lt;font style=&quot;font-size: 10px;&quot;&gt;Orders&lt;/font&gt;" style="shape=datastore;whiteSpace=wrap;html=1;fontSize=10;" parent="1" vertex="1">
          <mxGeometry x="780" y="470" width="40" height="40" as="geometry" />
        </mxCell>
        <mxCell id="gY_GVaVvyaLF-PBXhxA3-50" value="&lt;font style=&quot;font-size: 8px;&quot;&gt;Buy/sell&lt;/font&gt;" style="edgeStyle=orthogonalEdgeStyle;rounded=0;orthogonalLoop=1;jettySize=auto;html=1;exitX=0.5;exitY=1;exitDx=0;exitDy=0;entryX=0.5;entryY=0;entryDx=0;entryDy=0;" parent="1" source="gY_GVaVvyaLF-PBXhxA3-49" target="gY_GVaVvyaLF-PBXhxA3-46" edge="1">
          <mxGeometry y="20" relative="1" as="geometry">
            <Array as="points" />
            <mxPoint as="offset" />
          </mxGeometry>
        </mxCell>
        <mxCell id="gY_GVaVvyaLF-PBXhxA3-55" style="edgeStyle=orthogonalEdgeStyle;rounded=0;orthogonalLoop=1;jettySize=auto;html=1;entryX=0;entryY=0.5;entryDx=0;entryDy=0;" parent="1" source="gY_GVaVvyaLF-PBXhxA3-49" target="gY_GVaVvyaLF-PBXhxA3-54" edge="1">
          <mxGeometry relative="1" as="geometry" />
        </mxCell>
        <mxCell id="gY_GVaVvyaLF-PBXhxA3-56" style="edgeStyle=orthogonalEdgeStyle;rounded=0;orthogonalLoop=1;jettySize=auto;html=1;exitX=0;exitY=0.25;exitDx=0;exitDy=0;entryX=0.226;entryY=0;entryDx=0;entryDy=0;entryPerimeter=0;" parent="1" source="gY_GVaVvyaLF-PBXhxA3-49" target="gY_GVaVvyaLF-PBXhxA3-43" edge="1">
          <mxGeometry relative="1" as="geometry" />
        </mxCell>
        <mxCell id="gY_GVaVvyaLF-PBXhxA3-58" value="&lt;font style=&quot;font-size: 8px;&quot;&gt;Execute&lt;/font&gt;" style="edgeLabel;html=1;align=center;verticalAlign=middle;resizable=0;points=[];fontSize=8;" parent="gY_GVaVvyaLF-PBXhxA3-56" vertex="1" connectable="0">
          <mxGeometry x="-0.1004" y="1" relative="1" as="geometry">
            <mxPoint x="1" y="-11" as="offset" />
          </mxGeometry>
        </mxCell>
        <mxCell id="gY_GVaVvyaLF-PBXhxA3-64" style="edgeStyle=orthogonalEdgeStyle;rounded=0;orthogonalLoop=1;jettySize=auto;html=1;exitX=0.25;exitY=0;exitDx=0;exitDy=0;entryX=1;entryY=0.5;entryDx=0;entryDy=0;" parent="1" source="gY_GVaVvyaLF-PBXhxA3-49" target="gY_GVaVvyaLF-PBXhxA3-39" edge="1">
          <mxGeometry relative="1" as="geometry" />
        </mxCell>
        <mxCell id="gY_GVaVvyaLF-PBXhxA3-65" value="Status" style="edgeLabel;html=1;align=center;verticalAlign=middle;resizable=0;points=[];fontSize=8;" parent="gY_GVaVvyaLF-PBXhxA3-64" vertex="1" connectable="0">
          <mxGeometry x="0.2652" y="2" relative="1" as="geometry">
            <mxPoint x="-2" y="-12" as="offset" />
          </mxGeometry>
        </mxCell>
        <mxCell id="gY_GVaVvyaLF-PBXhxA3-66" style="edgeStyle=orthogonalEdgeStyle;rounded=0;orthogonalLoop=1;jettySize=auto;html=1;exitX=0.75;exitY=0;exitDx=0;exitDy=0;entryX=0.5;entryY=0;entryDx=0;entryDy=0;" parent="1" source="gY_GVaVvyaLF-PBXhxA3-49" target="gY_GVaVvyaLF-PBXhxA3-30" edge="1">
          <mxGeometry relative="1" as="geometry">
            <Array as="points">
              <mxPoint x="720" y="280" />
              <mxPoint x="80" y="280" />
            </Array>
          </mxGeometry>
        </mxCell>
        <mxCell id="gY_GVaVvyaLF-PBXhxA3-67" value="&lt;font style=&quot;font-size: 8px;&quot;&gt;Data&lt;/font&gt;" style="edgeLabel;html=1;align=center;verticalAlign=middle;resizable=0;points=[];" parent="gY_GVaVvyaLF-PBXhxA3-66" vertex="1" connectable="0">
          <mxGeometry x="0.039" y="1" relative="1" as="geometry">
            <mxPoint y="-11" as="offset" />
          </mxGeometry>
        </mxCell>
        <mxCell id="gY_GVaVvyaLF-PBXhxA3-49" value="Sick engine" style="rounded=0;whiteSpace=wrap;html=1;fillColor=#f5f5f5;strokeColor=#666666;fontColor=#333333;fontSize=10;strokeWidth=1;" parent="1" vertex="1">
          <mxGeometry x="660" y="400" width="80" height="40" as="geometry" />
        </mxCell>
        <mxCell id="gY_GVaVvyaLF-PBXhxA3-54" value="&lt;font style=&quot;font-size: 10px;&quot;&gt;Trades&lt;/font&gt;" style="shape=datastore;whiteSpace=wrap;html=1;fontSize=10;" parent="1" vertex="1">
          <mxGeometry x="780" y="400" width="40" height="40" as="geometry" />
        </mxCell>
        <mxCell id="gY_GVaVvyaLF-PBXhxA3-60" value="&lt;font style=&quot;font-size: 10px;&quot;&gt;Inventory&lt;/font&gt;" style="shape=datastore;whiteSpace=wrap;html=1;fontSize=10;" parent="1" vertex="1">
          <mxGeometry x="460" y="430" width="40" height="40" as="geometry" />
        </mxCell>
      </root>
    </mxGraphModel>
  </diagram>
</mxfile>
